<svg width="837" height="545" viewBox="0 0 837 545" fill="none" xmlns="http://www.w3.org/2000/svg">
<path d="M799.3 116.6L802.2 122.9L802.8 126.9L797.5 131.8L796.3 138.8L793.7 141.7L791.8 144.6L792 148.9L794.4 157.7L793.9 168.9L794.5 172.1L795.8 173.5L799.5 176.1L801 177.9L801.4 179.7L800.7 189.7L799.5 192.7L792.2 205.8L790.7 209.5L791 212.6L793.2 213.7L805.1 216.3L808.2 216.5L818.8 212.2L824.5 214.6L827.5 222L829.7 230.8L836.7 243.5L834.6 246.7L822.7 249.7L800.7 258.7L797.2 258.3L792.2 254.4L788.8 255L785.7 256.2L782.8 256.3L776.7 255.2L770.4 255.1L765 256.1L759.9 258.2L754.3 261.2L750.7 263.3L742.6 266.3L734.5 267.9L733.8 270.9L735.4 274.6L738.6 277.5L745.4 281.6L748.5 286.1L749.3 292.1L749.9 307.7L749.1 310.5L740.3 323.6L738.6 327.1L732.4 352.6L729.7 356.6L722.7 364.4L719.1 369.7L717 376.6L713.1 397.1L708.9 409.7L690.9 441.3L685.1 461L684.4 467.1L685.6 497L683.6 526.9L671 543.3L668.2 543.8L642.3 540.4L616.1 536.9L589.8 533.4L563.5 529.9L537.3 526.4L511 522.9L484.8 519.4L458.5 515.9L432.3 512.4L406 508.9L379.8 505.4L353.5 501.9L327.2 498.4L301 494.9L274.7 491.4L248.5 487.9L222.2 484.4L191.9 480.3L187.2 478.8L183.5 475.4L173.3 462.4L163.5 449.7L153.6 436.9L143.8 424.2L133.9 411.5L124.1 398.7L114.3 385.9L104.4 373.2L94.6 360.4L84.7 347.7L74.9 334.9L65 322.1L55.2 309.3L45.3 296.5L35.5 283.7L25.6 270.9L15.8 258.1L5 244.1L2.2 239.2L1.2 233.8L1.6 220.6V215.2L0.5 207.3L4.5 201.4L4.7 192.2L1.3 184.8L5.1 180.6L6.7 184.1L10.7 190L11.5 194.1V206L12.7 213.3L15.4 215L18.1 212.1L20 202.7L21.2 205.3L23.1 211.7L24.4 213.8L25.3 214.3L27 214.5L28.6 214.1L29.6 213.1L29.8 212.1L29.1 211.7L32.7 202.8L36.2 200.1L40.1 206L40.7 210.5L38.7 223.8L39 228.6L41.3 238.8L41.5 241L41.3 248L41.7 250.2L43.5 254.4L43.9 256.5L45.8 260.1L50.3 261.3L59.5 261.5L61.7 262.2L63.4 263.2L66.6 266.4L68.3 267.5H69.8L70.3 266.6L69.2 265L68.8 262.7L72.9 262.1L83.7 262.8L85 262.4L86.3 262.8L88.6 265L94.5 267.8L96.1 267.7L104 266.3L107.4 267.2L109.3 266L111.1 267.2L114.1 265.8L117.3 265.6L120.7 265.8L124.1 265.6L127.3 264.5L134.5 260L137.7 259.5H143.7L146.2 258.7L148.3 256.9L150.7 254.5L153.2 252.4L155.9 251.5L159 250.9L162.6 249.4L165.7 247.3L166.9 245.1L168 242.7L173.7 240.3L176.5 238L179 235.5L182.3 233L185.6 231.1L188.2 230.3L190.3 228.8L190.9 225.3V221.5L191.4 219L195.1 216.9L198.6 218.1L201.5 221L208.3 230.3L210.4 231.1L211.2 230.6L211.8 229.5L213.5 228.8L217.7 228.9L225.5 231.2L229.6 231.7L232 231.3L236 229.4L238.1 228.8H240.2L241.9 229.3L243.2 229.9L244.5 230.3L260.6 231.7L262.4 231.4L269.1 228.8L270 228L270.3 226.9L270.6 226H271.7L272.7 226.6L273.4 227.5L273.9 228.3L274.3 228.8L279.8 233.4L283.3 235L290.8 231.7L294.7 233.2L298.3 235.2L301.5 234.4L298.9 232.9L298.1 230.9V228.6L297.5 226L301.8 225L306.8 227.3L311.3 231L314.4 234.4L317 238.7L318.5 239.8L329 240.5L353.1 235.5H354.8L356.5 236.6L359 239.5L361 240.9L363.7 241.5L366.5 241.3L368.7 240.2L372.1 242.8L374.1 244L375.9 244.5L376.6 245.2L379.1 249L380.4 250.2L381.9 250.5H384.1L386.2 250.1L389.4 248.5L391.3 248.9L393.1 249.8L394.7 250.2L400.5 247.4L401.8 246.5L403.3 245.7L405.1 246L407 246.8L408.9 247.3L431.8 247.4L436.6 246.8L438.6 245.1L450.2 238.8L462.1 236.8L465.9 234.9L469.9 234.1L474.8 231.7L480.6 230.9L482.6 230.3L485 228.8L488.5 226.1L491.6 222.8L492.9 219.7L494.8 218.1L507.2 214.5L517.2 207.1L518.9 206.8L520.4 204.3L524 204.4L531.7 207.6L533.1 205.2L540.1 199.8L543.7 194.8L551.1 179.9L550.1 174.7L550.7 172.2L553.7 170.7L552 169.5L551.1 169.2V167.7L554.1 168L558.7 170.1L561.5 170.7L560.3 168.1L557 164.5L556.4 162L559.2 163.3L562.2 164.3L564.9 165.5L566.7 167.7H567.9L567.3 162.2L563.8 160.5L558.8 160.3L553.7 159.2L542.7 151.7L538.2 150.7V149.4L540.5 148.8L542.8 147.2L544.8 145L545.1 146.3L545.7 148L547.3 149.4L546.8 147.3L547.4 145.4L549.8 142.2H551.1L552.6 147.9L556.3 153.5L560.9 157L565.4 156.4L564.3 155.8L561.5 153.4L563.6 153.5L567.7 154.8L569.3 154.9L569.9 154.2L571.6 151.3L572.5 150.7L579.6 136.4L576.5 135L575 133.2L575.7 131.5L579 130.9L580.9 129.6L581.5 126.8L582.6 123.8L586.1 122.2V120.9L584.4 119.7L583.6 117.6L583.1 115L582.2 112.3L583.2 110.8L581.9 109.9L580.4 108.4L580.9 105L582.7 103.1L590 98.1L591 96.7L591.9 94.7L593 93.6L598.8 96.3L599.1 96.5L601.8 95.9L604.6 94.1L605.5 91.3L603 88L623.5 75.9L632.7 69.2L638.5 63.9L642.2 61.4L646.9 59.8L647.3 59.7L648.1 59.4L648.9 59.2L649.4 59L651 61.1L674.3 128.3L676.2 132.3L678.6 135.3L682.2 136.5L686.1 137L726.1 135.4L731.4 134.2L737.1 132.1L749.8 124.7L770.6 116.2L775 113.3L789.7 117.1L797.4 117L799.3 116.6ZM394.7 227.5L391.4 227.1L389.2 226.3V224.7L392.1 221.7L394.2 220.4L394.5 220.2L399.1 218.5L401.1 217.5L404.7 214.3L405.8 213.6L407.1 212.7L407.9 212.4L410.1 211.7L411.9 211.8L414.7 212.9L415.1 213L416.1 213.2L417.4 212.7L421.9 209L427.1 206.8L429.2 205.6L430.8 203.3L431.8 205.9L431.5 206.5L430.8 207.6L432.7 210.8L433.6 211.7L438.4 214.8L439.1 215.2L445.6 216.5L447 217.1L450.9 218.7L452.8 224.6L450.2 229.3L444.4 231.3L437.7 231.1L432.1 228.8L432.5 226.9L431 224.2L428.7 223.6L426.8 227.5L428.2 228.8L423.1 232.1L416.9 233.3L410.6 232.6L405 230.3L401.7 228.5L399.8 227.8L394.7 227.5ZM495.5 213.2L493.6 209.6L489.5 207.7L484.8 206.4L480.7 204L478.6 198.7V198.6L481.2 194.3L485.3 192.6L486.3 193.5L487.8 194.9L492.6 200.2L495 202.8L497 207.9L495.5 213.2ZM190.3 189.1L192.7 185.6L197.2 183L201.6 184.4L203.6 187.7L204.7 193L204.3 196.2L200.2 201.6L196.7 204.7L193.6 207.8L191.1 205.2L189.1 201.7L186.8 196.7L187.2 192.6L190.3 189.1ZM331.6 205.9L328.9 202.6L326.2 202.4L322.7 200.5L320.9 203.6L313.7 202.5L311 202.1L307 202.9L306.3 203.2H305.8L305.4 202.1L305.5 200.9L306 199.4L306.7 198.1L307.3 197.6L314.4 199.1L316.3 198.6L321.1 196.5L322.1 195.6L323.1 194.8L329.3 192.3L332.8 190.7H334.5L336.3 194L338.2 195L339.9 194.2L340.3 191.9L340 189.7L338.9 187.6L346 177.1L349.3 174.8L349.5 176L350.3 178L350.6 179.2L355 181.6L353.8 189.6L351.4 192.2L343.9 195.7L340.4 197.9L335.9 198.5L333.2 200.6V202.8L331.6 205.9ZM531.7 169.2L522.7 166.4V163.1L530.3 156L533 152H534.3L533 156.4L534.3 160.1L537.7 162.8L544.7 166.4L548.1 169.9L548.3 172.3L545.7 173.1L540.7 172.2L531.7 169.2ZM509.7 199.3L508 200.7L506.2 201.7L504.6 202.1L502.5 202L501.4 201.4L498.2 197.6L495.8 195.9L494 195.1L493.3 193.7L494.3 190.5L495.7 188.6L497.9 187L500.6 186.2H503.3L505 189.7L506.9 192.7L511.1 197.6L509.7 199.3ZM521 183L522.8 184.9L522.9 187.7L520.9 193.8L517.8 195.3L512.6 186.3L512.1 184.8L513.5 184.6L515.6 185.1L517.4 186.3L518.2 186.7L518.5 185.8L518 184.7L515.2 182.6L514.6 180.7L517 180.4L521 183ZM140.3 148.5L144.6 151.4L145.8 156.4L143.4 160.7L141.1 161.8L138.4 160.3L137.4 159L136.5 158.4L135.3 157.3L135.1 154.5L136.7 152.3L138.2 149.8L140.3 148.5ZM82.7 207.9L84.9 207L86.6 209.4L86.4 210.2L86.1 210.8L86.4 211.7L85.2 214.6L83.3 216.6L82.6 216L81.4 215.5L80.7 214.9L81.5 213.4V211.2L82.7 207.9ZM29.7 134.4L31.8 136.1L32.6 137.9L32.2 139.2L32.1 139.8L31.3 141.6L30.8 143.2L29.9 142.4L29.7 139.6L30.1 138.3L29.4 138.6L29.3 137.9V137.1L29.2 137.3H28.9H28.6L28.7 137.6L28.5 137.7L28.7 138.5L27.5 137.5L27.3 135.5L28.8 134.3L29.7 134.4ZM282.1 74.9L285.6 75.4L286.3 79L285.6 83.2L284.4 82.1L284.1 81.1L282.5 79.1L281.6 76.4L282.1 74.9ZM499.3 0.699997L503.1 2L504.7 9.2L502.3 8.10001H499.9L496.8 4.39999L499.3 0.699997Z" fill="#6F9C76" stroke="white" stroke-width="0.5" stroke-linecap="round" stroke-linejoin="round"/>
</svg>
